<svg xmlns="http://www.w3.org/2000/svg" xmlns:xlink="http://www.w3.org/1999/xlink" width="153.72" height="24.976" viewBox="0 0 153.72 24.976">
  <defs>
    <linearGradient id="linear-gradient" x1="0.319" y1="-0.267" x2="0.656" y2="1.247" gradientUnits="objectBoundingBox">
      <stop offset="0" stop-color="#d234de"/>
      <stop offset="1" stop-color="#4a9ab8"/>
    </linearGradient>
  </defs>
  <path id="Path_26" data-name="Path 26" d="M11.732.392a13.252,13.252,0,0,0,8.512-3.024v-8.82H11.228v3.976h3.864V-5.1a5.539,5.539,0,0,1-3.136.812,5.177,5.177,0,0,1-5.32-5.432v-.056a5.148,5.148,0,0,1,5.012-5.376A6.915,6.915,0,0,1,16.38-13.3l3.192-3.836a11.432,11.432,0,0,0-7.952-2.856A10.175,10.175,0,0,0,1.064-9.8v.056C1.064-3.808,5.628.392,11.732.392ZM27.58.336a5.712,5.712,0,0,0,4.452-1.9V0H37.3V-8.708a6.329,6.329,0,0,0-1.624-4.816c-1.2-1.2-3.052-1.848-5.768-1.848A15.217,15.217,0,0,0,23.772-14.2l1.092,3.752a10.668,10.668,0,0,1,4.172-.84c2.044,0,3.024.9,3.024,2.464v.252a11.618,11.618,0,0,0-3.64-.588c-3.556,0-5.936,1.624-5.936,4.76v.056C22.484-1.316,24.7.336,27.58.336ZM29.484-3a1.669,1.669,0,0,1-1.876-1.652V-4.7c0-1.12.9-1.876,2.436-1.876a5.574,5.574,0,0,1,2.072.392v.7A2.434,2.434,0,0,1,29.484-3ZM40.012,0h5.32V-8.232c0-1.652.9-2.52,2.156-2.52s2.072.868,2.072,2.52V0h5.32V-8.232c0-1.652.924-2.52,2.184-2.52s2.072.868,2.072,2.52V0h5.32V-9.94c0-3.528-1.96-5.544-5.18-5.544a6.37,6.37,0,0,0-5.068,2.464,4.644,4.644,0,0,0-4.368-2.464,5.562,5.562,0,0,0-4.508,2.408v-2.072h-5.32ZM74.7.364a7.933,7.933,0,0,0,6.58-3.08l-2.94-2.436a4.571,4.571,0,0,1-3.36,1.54A3.127,3.127,0,0,1,71.708-6.1H81.844c.028-.364.028-.756.028-1.092,0-4.452-2.408-8.288-7.644-8.288A7.6,7.6,0,0,0,66.584-7.56V-7.5C66.584-2.8,69.944.364,74.7.364ZM71.624-8.82c.28-1.652,1.232-2.744,2.632-2.744,1.456,0,2.436,1.064,2.632,2.744ZM84.448,0H94.556c4.676,0,7.42-2.044,7.42-5.4V-5.46c0-2.66-1.512-4-3.892-4.788a4.537,4.537,0,0,0,3.024-4.368v-.056a4.3,4.3,0,0,0-1.26-3.164C98.7-18.984,96.964-19.6,94.5-19.6H84.448ZM89.74-11.788v-3.444h3.528c1.624,0,2.464.616,2.464,1.68v.056c0,1.148-.924,1.708-2.576,1.708Zm0,7.42V-7.98h4.144c1.82,0,2.66.7,2.66,1.764v.056c0,1.148-.952,1.792-2.6,1.792ZM104.272,0h5.32V-20.44h-5.32Zm8.288-16.52H118.1v-3.92H112.56ZM112.672,0h5.32V-15.148h-5.32Zm8.288,0h5.32V-8.2a2.241,2.241,0,0,1,2.24-2.548c1.26,0,2.128.9,2.128,2.548V0h5.32V-9.912c0-3.444-1.932-5.572-5.152-5.572a5.618,5.618,0,0,0-4.536,2.464v-2.128h-5.32Zm25.2,4.536c3.164,0,5.292-.756,6.664-2.128,1.344-1.344,1.96-3.276,1.96-6.048V-15.148h-5.32v1.792a6.084,6.084,0,0,0-4.76-2.128c-3.5,0-6.552,2.688-6.552,7.056v.056c0,4.34,3,7.028,6.72,7.028a5.87,5.87,0,0,0,4.676-2.268v.588c0,2.408-1.316,3.724-3.976,3.724A10.454,10.454,0,0,1,140.28-.728L138.572,2.8A16.227,16.227,0,0,0,146.16,4.536Zm.308-9.968a2.909,2.909,0,0,1-3.108-2.912V-8.4a2.931,2.931,0,0,1,3.108-2.94,2.9,2.9,0,0,1,3.08,2.912v.056A2.923,2.923,0,0,1,146.468-5.432Z" transform="translate(-1.064 20.44)" fill="url(#linear-gradient)"/>
</svg>
